<svg width="42" height="42" viewBox="0 0 42 42" fill="none" xmlns="http://www.w3.org/2000/svg">
<g clip-path="url(#clip0_18_484)">
<path d="M13.527 2.01774C12.8953 0.491962 11.2301 -0.320147 9.63867 0.114618L2.41992 2.08337C0.992578 2.47712 0 3.77321 0 5.24977C0 25.5443 16.4555 41.9998 36.75 41.9998C38.2266 41.9998 39.5227 41.0072 39.9164 39.5799L41.8852 32.3611C42.3199 30.7697 41.5078 29.1045 39.982 28.4728L32.107 25.1916C30.7699 24.6338 29.2195 25.0193 28.309 26.1431L24.9949 30.1873C19.2199 27.4556 14.5441 22.7799 11.8125 17.0049L15.8566 13.699C16.9805 12.7802 17.366 11.2381 16.8082 9.90095L13.527 2.02595V2.01774Z" fill="white"/>
</g>
<defs>
<clipPath id="clip0_18_484">
<rect width="42" height="42" fill="white"/>
</clipPath>
</defs>
</svg>
